<svg data-v-423bf9ae="" xmlns="http://www.w3.org/2000/svg" viewBox="0 0 292 90" class="iconLeftSlogan"><!----><!----><!----><g data-v-423bf9ae="" id="dcfb06ec-de36-494b-ae50-b976250ff24c" fill="#342103" transform="matrix(4.367276689790059,0,0,4.367276689790059,113.73742576050262,0.43672710179205154)"><path d="M7.07 9.27C7.97 7.92 7.42 6.40 5.56 5.17L3.32 3.70C1.36 2.42 2.21 0.52 3.72 0.52C6.01 0.52 6.71 2.27 6.90 3.33L7.11 3.33L7.11 0.98C7.11 0.98 5.94 0.31 3.72 0.31C1.64 0.31 0.95 1.39 0.95 1.39C-0.17 2.98 0.84 4.31 2.51 5.38L4.73 6.80C6.41 8.01 6.03 10.21 4.23 10.21C1.79 10.21 1.08 8.18 0.85 6.90L0.64 6.90L0.64 9.59C0.64 9.59 1.74 10.42 4.23 10.42C6.44 10.42 7.07 9.27 7.07 9.27ZM15.29 10.08C14.80 9.95 14.71 9.55 14.71 8.78L14.71 5.91C14.71 4.23 14 3.70 12.87 3.70C11.97 3.70 10.86 4.48 10.61 5.25L10.61-0.10L8.43 0.41L8.43 0.62C9.00 0.77 9.13 0.92 9.13 1.41L9.13 8.78C9.13 9.49 9.10 9.91 8.57 10.07L8.57 10.29L11.19 10.29L11.19 10.07C10.68 9.94 10.61 9.55 10.61 8.78L10.61 5.56C10.88 5.04 11.38 4.58 11.91 4.58C12.81 4.58 13.23 5.05 13.23 5.96L13.23 8.78C13.23 9.49 13.20 9.93 12.67 10.08L12.67 10.29L15.29 10.29L15.29 10.08ZM20.90 7.06C20.90 9.59 20.43 10.21 19.38 10.21C18.34 10.21 17.85 9.59 17.85 7.06C17.85 4.52 18.34 3.91 19.38 3.91C20.43 3.91 20.90 4.52 20.90 7.06ZM22.67 7.06C22.67 5.21 21.52 3.70 19.38 3.70C17.25 3.70 16.10 5.21 16.10 7.06C16.10 8.89 17.25 10.42 19.38 10.42C21.52 10.42 22.67 8.89 22.67 7.06ZM27.36 3.75C26.91 3.86 26.22 4.16 25.59 5.21L25.59 3.70L23.39 4.17L23.39 4.38C23.97 4.59 24.09 4.80 24.09 5.28L24.09 8.78C24.09 9.51 24.07 9.91 23.53 10.08L23.53 10.29L26.17 10.29L26.17 10.08C25.66 9.94 25.59 9.56 25.59 8.78L25.59 5.57C26.07 4.69 26.82 4.45 26.80 4.65C26.78 4.86 26.87 5.08 27.03 5.26C27.41 5.61 27.97 5.60 28.32 5.25C28.67 4.90 28.67 4.33 28.32 3.98C28.07 3.74 27.64 3.68 27.36 3.75ZM33.11 9.03C33.00 9.28 32.68 9.58 32.27 9.58C31.58 9.58 31.22 9.18 31.22 8.23L31.22 4.03L32.83 4.03L32.89 3.82L31.22 3.82L31.22 1.65L29.74 1.89L29.74 3.82L28.99 3.82L29.04 4.03L29.74 4.03L29.74 8.27C29.74 9.97 30.38 10.42 31.43 10.42C32.31 10.42 33.05 9.77 33.29 9.14L33.11 9.03ZM38.00 3.82L38.00 4.02C39.62 4.00 38.72 6.19 38.72 6.19L37.88 8.40L36.27 4.96C36.27 4.96 35.85 4.02 36.67 4.02L36.67 3.82L33.57 3.82L33.57 4.02C33.78 4.03 34.26 4.06 34.51 4.65C34.51 4.65 35.87 7.53 37.14 10.37L36.55 11.98C36.34 12.54 36.02 12.68 35.97 12.50C35.91 12.29 35.77 12.10 35.55 12.00C35.11 11.80 34.61 12.00 34.41 12.43C34.23 12.87 34.41 13.37 34.85 13.57C35.14 13.71 35.57 13.62 35.80 13.44C36.04 13.26 36.43 12.89 36.76 12.01L38.92 6.23C39.77 4.10 40.33 4.02 40.73 4.02L40.73 3.82Z"></path></g><defs data-v-423bf9ae=""><linearGradient data-v-423bf9ae="" gradientTransform="rotate(25)" id="fd61f22e-638c-4f38-b4b9-f837a097ff73" x1="0%" y1="0%" x2="100%" y2="0%"><stop data-v-423bf9ae="" offset="0%" style="stop-color: rgb(229, 101, 0); stop-opacity: 1;"></stop><stop data-v-423bf9ae="" offset="100%" style="stop-color: rgb(235, 197, 29); stop-opacity: 1;"></stop></linearGradient></defs><g data-v-423bf9ae="" id="8422577e-41a7-4c11-a6e0-aa73ec89eb8f" transform="matrix(2.994410458179972,0,0,2.994410458179972,0.08943266912044834,-1.9385669710569857)" stroke="none" fill="url(#fd61f22e-638c-4f38-b4b9-f837a097ff73)"><path d="M17.572 23.933l4.106 7.095L32 13.189h-8.981V7.582L11.51.972 0 7.582v13.222l11.51 6.611 6.062-3.482zm10.96-8.744l-6.855 11.846-6.855-11.846h13.71z"></path></g><!----><g data-v-423bf9ae="" id="a4cece19-3257-46a3-a10d-f781bb8a8d48" fill="#342103" transform="matrix(0.4602729206352428,0,0,0.4602729206352428,115.27340817608467,58.87233301560459)"><path d="M1.19 2.80L1.19 9.24C1.19 10.29 1.47 11.13 2.04 11.77C2.61 12.42 3.37 12.74 4.31 12.74C5.25 12.74 6.01 12.42 6.58 11.77C7.15 11.13 7.43 10.29 7.43 9.24L7.43 2.80L7.01 2.80L7.01 9.24C7.01 10.17 6.76 10.92 6.25 11.47C5.74 12.02 5.10 12.29 4.31 12.29C3.53 12.29 2.88 12.02 2.37 11.47C1.86 10.92 1.61 10.17 1.61 9.24L1.61 2.80ZM17.30 2.80ZM16.88 2.80L16.88 12.60L17.30 12.60L17.30 8.48L18.86 8.48L21.98 12.60L22.53 12.60L19.33 8.47C20.23 8.41 20.95 8.15 21.48 7.67C22.02 7.20 22.29 6.52 22.29 5.64C22.29 4.71 21.98 4.00 21.38 3.52C20.77 3.04 19.97 2.80 18.98 2.80ZM17.30 3.21L18.98 3.21C19.85 3.21 20.55 3.41 21.07 3.83C21.59 4.24 21.85 4.85 21.85 5.64C21.85 6.44 21.59 7.04 21.07 7.45C20.55 7.87 19.85 8.08 18.98 8.08L17.30 8.08ZM30.93 2.80L30.93 12.60L35.41 12.60L35.41 12.19L31.35 12.19L31.35 2.80ZM54.82 9.74L54.45 9.90C55.07 11.77 56.12 12.71 57.60 12.71C58.51 12.71 59.20 12.45 59.67 11.93C60.13 11.41 60.37 10.77 60.37 10.01C60.37 9.66 60.31 9.35 60.19 9.06C60.08 8.78 59.95 8.55 59.80 8.37C59.66 8.19 59.45 8.02 59.19 7.86C58.93 7.70 58.72 7.58 58.56 7.50C58.39 7.43 58.17 7.34 57.89 7.22C57.85 7.21 57.74 7.16 57.54 7.08C57.34 7.01 57.22 6.96 57.18 6.94C57.13 6.91 57.02 6.87 56.85 6.80C56.69 6.73 56.58 6.67 56.53 6.64C56.47 6.60 56.38 6.54 56.25 6.45C56.12 6.37 56.03 6.30 55.99 6.24C55.94 6.18 55.87 6.10 55.79 6.00C55.71 5.90 55.65 5.80 55.62 5.70C55.58 5.61 55.55 5.50 55.52 5.38C55.50 5.25 55.48 5.12 55.48 4.98C55.48 4.41 55.68 3.95 56.08 3.62C56.47 3.29 56.97 3.12 57.55 3.12C58.68 3.12 59.47 3.77 59.91 5.07L60.31 4.90C60.11 4.23 59.77 3.69 59.30 3.29C58.84 2.89 58.26 2.69 57.57 2.69C56.88 2.69 56.28 2.90 55.77 3.33C55.26 3.76 55.01 4.33 55.01 5.04C55.01 5.39 55.08 5.71 55.22 5.99C55.37 6.27 55.58 6.51 55.87 6.71C56.15 6.91 56.41 7.07 56.64 7.17C56.87 7.28 57.16 7.41 57.53 7.55C57.81 7.65 58.00 7.72 58.10 7.77C58.20 7.82 58.38 7.90 58.62 8.02C58.86 8.13 59.04 8.24 59.14 8.34C59.25 8.45 59.38 8.58 59.52 8.75C59.67 8.92 59.77 9.11 59.82 9.32C59.88 9.54 59.91 9.78 59.91 10.05C59.91 10.72 59.72 11.27 59.34 11.68C58.96 12.09 58.39 12.29 57.64 12.29C56.41 12.29 55.47 11.44 54.82 9.74ZM69.40 2.80L69.40 12.60L69.82 12.60L69.82 7.62L76.05 7.62L76.05 12.60L76.47 12.60L76.47 2.80L76.05 2.80L76.05 7.18L69.82 7.18L69.82 2.80ZM85.85 7.70C85.85 6.38 86.25 5.29 87.07 4.41C87.88 3.53 88.90 3.09 90.15 3.09C91.39 3.09 92.41 3.53 93.23 4.41C94.04 5.29 94.44 6.38 94.44 7.70C94.44 9.02 94.04 10.11 93.23 10.99C92.41 11.87 91.39 12.31 90.15 12.31C88.90 12.31 87.88 11.87 87.07 10.99C86.25 10.11 85.85 9.02 85.85 7.70ZM85.43 7.70C85.43 9.16 85.87 10.36 86.77 11.30C87.66 12.24 88.78 12.71 90.15 12.71C91.51 12.71 92.64 12.24 93.53 11.30C94.42 10.36 94.86 9.16 94.86 7.70C94.86 6.24 94.42 5.04 93.53 4.10C92.64 3.16 91.51 2.69 90.15 2.69C88.78 2.69 87.66 3.16 86.77 4.10C85.87 5.04 85.43 6.24 85.43 7.70ZM104.24 2.80ZM103.82 2.80L103.82 12.60L104.24 12.60L104.24 8.48L105.80 8.48L108.92 12.60L109.47 12.60L106.27 8.47C107.17 8.41 107.89 8.15 108.42 7.67C108.96 7.20 109.23 6.52 109.23 5.64C109.23 4.71 108.92 4.00 108.32 3.52C107.71 3.04 106.91 2.80 105.92 2.80ZM104.24 3.21L105.92 3.21C106.79 3.21 107.49 3.41 108.01 3.83C108.53 4.24 108.79 4.85 108.79 5.64C108.79 6.44 108.53 7.04 108.01 7.45C107.49 7.87 106.79 8.08 105.92 8.08L104.24 8.08ZM116.89 3.21L119.41 3.21L119.41 12.60L119.83 12.60L119.83 3.21L122.35 3.21L122.35 2.80L116.89 2.80ZM131.31 7.48L135.65 7.48L135.65 7.08L131.31 7.08L131.31 3.21L135.93 3.21L135.93 2.80L130.89 2.80L130.89 12.60L135.93 12.60L135.93 12.19L131.31 12.19ZM152.24 2.80L152.24 11.79L144.75 2.45L144.75 12.60L145.17 12.60L145.17 3.61L152.66 12.95L152.66 2.80ZM161.55 2.80L161.55 12.60L161.97 12.60L161.97 2.80ZM178.35 2.80L178.35 11.79L170.86 2.45L170.86 12.60L171.28 12.60L171.28 3.61L178.77 12.95L178.77 2.80ZM196.41 7.63L192.35 7.63L192.35 8.11L195.93 8.11C195.85 9.32 195.45 10.32 194.74 11.09C194.03 11.87 193.09 12.26 191.93 12.26C190.64 12.26 189.60 11.82 188.80 10.94C188.01 10.06 187.61 8.98 187.61 7.70C187.61 6.40 188.02 5.32 188.83 4.45C189.63 3.57 190.67 3.14 191.93 3.14C192.67 3.14 193.37 3.31 194.00 3.65C194.64 4.00 195.16 4.47 195.54 5.05L195.93 4.75C195.49 4.11 194.93 3.61 194.25 3.24C193.57 2.87 192.79 2.69 191.93 2.69C190.57 2.69 189.44 3.17 188.53 4.13C187.62 5.09 187.17 6.28 187.17 7.70C187.17 9.12 187.62 10.31 188.53 11.27C189.44 12.23 190.57 12.71 191.93 12.71C193.30 12.71 194.39 12.22 195.20 11.23C196.00 10.25 196.41 9.05 196.41 7.63ZM216.31 9.74L215.94 9.90C216.56 11.77 217.61 12.71 219.09 12.71C220.00 12.71 220.69 12.45 221.16 11.93C221.62 11.41 221.86 10.77 221.86 10.01C221.86 9.66 221.80 9.35 221.68 9.06C221.57 8.78 221.44 8.55 221.29 8.37C221.15 8.19 220.94 8.02 220.68 7.86C220.42 7.70 220.21 7.58 220.05 7.50C219.88 7.43 219.66 7.34 219.38 7.22C219.34 7.21 219.23 7.16 219.03 7.08C218.83 7.01 218.71 6.96 218.67 6.94C218.62 6.91 218.51 6.87 218.34 6.80C218.18 6.73 218.07 6.67 218.02 6.64C217.96 6.60 217.87 6.54 217.74 6.45C217.61 6.37 217.52 6.30 217.48 6.24C217.43 6.18 217.36 6.10 217.28 6.00C217.20 5.90 217.14 5.80 217.11 5.70C217.07 5.61 217.04 5.50 217.01 5.38C216.99 5.25 216.97 5.12 216.97 4.98C216.97 4.41 217.17 3.95 217.57 3.62C217.96 3.29 218.46 3.12 219.04 3.12C220.17 3.12 220.96 3.77 221.40 5.07L221.80 4.90C221.60 4.23 221.26 3.69 220.79 3.29C220.33 2.89 219.75 2.69 219.06 2.69C218.37 2.69 217.77 2.90 217.26 3.33C216.75 3.76 216.50 4.33 216.50 5.04C216.50 5.39 216.57 5.71 216.71 5.99C216.86 6.27 217.07 6.51 217.36 6.71C217.64 6.91 217.90 7.07 218.13 7.17C218.36 7.28 218.65 7.41 219.02 7.55C219.30 7.65 219.49 7.72 219.59 7.77C219.69 7.82 219.87 7.90 220.11 8.02C220.35 8.13 220.53 8.24 220.63 8.34C220.74 8.45 220.87 8.58 221.01 8.75C221.16 8.92 221.26 9.11 221.31 9.32C221.37 9.54 221.40 9.78 221.40 10.05C221.40 10.72 221.21 11.27 220.83 11.68C220.45 12.09 219.88 12.29 219.13 12.29C217.90 12.29 216.96 11.44 216.31 9.74ZM231.31 7.48L235.65 7.48L235.65 7.08L231.31 7.08L231.31 3.21L235.93 3.21L235.93 2.80L230.89 2.80L230.89 12.60L235.93 12.60L235.93 12.19L231.31 12.19ZM245.73 2.80ZM245.31 2.80L245.31 12.60L245.73 12.60L245.73 8.48L247.28 8.48L250.40 12.60L250.95 12.60L247.76 8.47C248.65 8.41 249.37 8.15 249.91 7.67C250.44 7.20 250.71 6.52 250.71 5.64C250.71 4.71 250.41 4.00 249.80 3.52C249.20 3.04 248.40 2.80 247.41 2.80ZM245.73 3.21L247.41 3.21C248.28 3.21 248.97 3.41 249.49 3.83C250.02 4.24 250.28 4.85 250.28 5.64C250.28 6.44 250.02 7.04 249.49 7.45C248.97 7.87 248.28 8.08 247.41 8.08L245.73 8.08ZM262.57 12.03L258.79 2.80L258.30 2.80L262.57 12.95L266.84 2.80L266.35 2.80ZM275.24 2.80L275.24 12.60L275.66 12.60L275.66 2.80ZM285.01 7.70C285.01 6.33 285.39 5.22 286.15 4.38C286.91 3.53 287.92 3.11 289.17 3.11C290.36 3.11 291.41 3.54 292.32 4.41L292.32 3.81C291.47 3.06 290.42 2.69 289.17 2.69C287.82 2.69 286.71 3.16 285.85 4.09C284.98 5.03 284.55 6.23 284.55 7.70C284.55 9.17 284.98 10.37 285.85 11.30C286.71 12.24 287.82 12.71 289.17 12.71C290.42 12.71 291.47 12.34 292.32 11.59L292.32 11.03C291.45 11.87 290.40 12.29 289.17 12.29C287.92 12.29 286.91 11.87 286.15 11.03C285.39 10.18 285.01 9.07 285.01 7.70ZM302.12 7.48L306.46 7.48L306.46 7.08L302.12 7.08L302.12 3.21L306.74 3.21L306.74 2.80L301.70 2.80L301.70 12.60L306.74 12.60L306.74 12.19L302.12 12.19Z"></path></g></svg>