<svg data-v-423bf9ae="" xmlns="http://www.w3.org/2000/svg" viewBox="0 0 175.79548160191564 60" class="font"><!----><!----><!----><g data-v-423bf9ae="" id="ed982204-4e13-4a47-8c37-9fa4e96f2d01" fill="black" transform="matrix(4.367276689790059,0,0,4.367276689790059,-2.0837030847122264,0.43672710179205154)"><path d="M7.07 9.27C7.97 7.92 7.42 6.40 5.56 5.17L3.32 3.70C1.36 2.42 2.21 0.52 3.72 0.52C6.01 0.52 6.71 2.27 6.90 3.33L7.11 3.33L7.11 0.98C7.11 0.98 5.94 0.31 3.72 0.31C1.64 0.31 0.95 1.39 0.95 1.39C-0.17 2.98 0.84 4.31 2.51 5.38L4.73 6.80C6.41 8.01 6.03 10.21 4.23 10.21C1.79 10.21 1.08 8.18 0.85 6.90L0.64 6.90L0.64 9.59C0.64 9.59 1.74 10.42 4.23 10.42C6.44 10.42 7.07 9.27 7.07 9.27ZM15.29 10.08C14.80 9.95 14.71 9.55 14.71 8.78L14.71 5.91C14.71 4.23 14 3.70 12.87 3.70C11.97 3.70 10.86 4.48 10.61 5.25L10.61-0.10L8.43 0.41L8.43 0.62C9.00 0.77 9.13 0.92 9.13 1.41L9.13 8.78C9.13 9.49 9.10 9.91 8.57 10.07L8.57 10.29L11.19 10.29L11.19 10.07C10.68 9.94 10.61 9.55 10.61 8.78L10.61 5.56C10.88 5.04 11.38 4.58 11.91 4.58C12.81 4.58 13.23 5.05 13.23 5.96L13.23 8.78C13.23 9.49 13.20 9.93 12.67 10.08L12.67 10.29L15.29 10.29L15.29 10.08ZM20.90 7.06C20.90 9.59 20.43 10.21 19.38 10.21C18.34 10.21 17.85 9.59 17.85 7.06C17.85 4.52 18.34 3.91 19.38 3.91C20.43 3.91 20.90 4.52 20.90 7.06ZM22.67 7.06C22.67 5.21 21.52 3.70 19.38 3.70C17.25 3.70 16.10 5.21 16.10 7.06C16.10 8.89 17.25 10.42 19.38 10.42C21.52 10.42 22.67 8.89 22.67 7.06ZM27.36 3.75C26.91 3.86 26.22 4.16 25.59 5.21L25.59 3.70L23.39 4.17L23.39 4.38C23.97 4.59 24.09 4.80 24.09 5.28L24.09 8.78C24.09 9.51 24.07 9.91 23.53 10.08L23.53 10.29L26.17 10.29L26.17 10.08C25.66 9.94 25.59 9.56 25.59 8.78L25.59 5.57C26.07 4.69 26.82 4.45 26.80 4.65C26.78 4.86 26.87 5.08 27.03 5.26C27.41 5.61 27.97 5.60 28.32 5.25C28.67 4.90 28.67 4.33 28.32 3.98C28.07 3.74 27.64 3.68 27.36 3.75ZM33.11 9.03C33.00 9.28 32.68 9.58 32.27 9.58C31.58 9.58 31.22 9.18 31.22 8.23L31.22 4.03L32.83 4.03L32.89 3.82L31.22 3.82L31.22 1.65L29.74 1.89L29.74 3.82L28.99 3.82L29.04 4.03L29.74 4.03L29.74 8.27C29.74 9.97 30.38 10.42 31.43 10.42C32.31 10.42 33.05 9.77 33.29 9.14L33.11 9.03ZM38.00 3.82L38.00 4.02C39.62 4.00 38.72 6.19 38.72 6.19L37.88 8.40L36.27 4.96C36.27 4.96 35.85 4.02 36.67 4.02L36.67 3.82L33.57 3.82L33.57 4.02C33.78 4.03 34.26 4.06 34.51 4.65C34.51 4.65 35.87 7.53 37.14 10.37L36.55 11.98C36.34 12.54 36.02 12.68 35.97 12.50C35.91 12.29 35.77 12.10 35.55 12.00C35.11 11.80 34.61 12.00 34.41 12.43C34.23 12.87 34.41 13.37 34.85 13.57C35.14 13.71 35.57 13.62 35.80 13.44C36.04 13.26 36.43 12.89 36.76 12.01L38.92 6.23C39.77 4.10 40.33 4.02 40.73 4.02L40.73 3.82Z"></path></g><!----><!----></svg>